<svg data-v-0dd9719b="" version="1.0" xmlns="http://www.w3.org/2000/svg" xmlns:xlink="http://www.w3.org/1999/xlink" width="100%" height="100%" viewBox="0 0 340.000000 250.000000" preserveAspectRatio="xMidYMid meet" color-interpolation-filters="sRGB" style="margin: auto;"> <rect data-v-0dd9719b="" x="0" y="0" width="100%" height="100%" fill="#fff" fill-opacity="1" class="background"></rect> <rect data-v-0dd9719b="" x="0" y="0" width="100%" height="100%" fill="url(#watermark)" fill-opacity="1" class="watermarklayer"></rect> <g data-v-0dd9719b="" fill="#e4007f" class="icon-text-wrapper icon-svg-group iconsvg" transform="translate(47.63999938964844,91.28683090209961)"><g class="iconsvg-imagesvg" transform="translate(0,0)"><g><rect fill="#e4007f" fill-opacity="0" stroke-width="2" x="0" y="0" width="60.00000000000001" height="67.42633672712563" class="image-rect"></rect> <svg x="0" y="0" width="60.00000000000001" height="67.42633672712563" filtersec="colorsb4820018506" class="image-svg-svg primary" style="overflow: visible;"><svg xmlns="http://www.w3.org/2000/svg" viewBox="-0.0000019073486328125 -0.00122833251953125 257.7980041503906 289.70562744140625"><defs><linearGradient id="a4a613848-a113-4429-8c35-ca9ad1a80c46" x1="176.32" y1="111.4" x2="12.32" y2="51.4" gradientUnits="userSpaceOnUse"><stop offset="0" stop-color="#e4007f"></stop><stop offset="1" stop-color="#007eca"></stop></linearGradient><linearGradient id="bc1fb899d-9258-4ed9-a083-622301e74a1e" x1="182.85" y1="93.56" x2="18.85" y2="33.56" gradientUnits="userSpaceOnUse"><stop offset="0" stop-color="#e4007f"></stop><stop offset="1" stop-color="#007eca"></stop></linearGradient><linearGradient id="c203ccf67-5004-428a-b966-e93dab2dd684" x1="185.27" y1="86.94" x2="21.27" y2="26.94" gradientUnits="userSpaceOnUse"><stop offset="0" stop-color="#e4007f"></stop><stop offset="1" stop-color="#007eca"></stop></linearGradient><linearGradient id="d5e757e44-c430-4230-9549-dfc3122f1cdc" x1="183.35" y1="92.2" x2="19.35" y2="32.2" gradientUnits="userSpaceOnUse"><stop offset="0" stop-color="#e4007f"></stop><stop offset="1" stop-color="#007eca"></stop></linearGradient><linearGradient id="e9beaacd1-72a6-4050-8bc9-6cdd8058e362" x1="166.87" y1="137.23" x2="2.87" y2="77.23" gradientUnits="userSpaceOnUse"><stop offset="0" stop-color="#e4007f"></stop><stop offset="1" stop-color="#007eca"></stop></linearGradient><linearGradient id="fe7bb6ce7-49b7-4e66-b20a-fae3e4af773c" x1="148.35" y1="187.85" x2="-15.65" y2="127.85" gradientUnits="userSpaceOnUse"><stop offset="0" stop-color="#e4007f"></stop><stop offset="1" stop-color="#007eca"></stop></linearGradient><linearGradient id="ge426d972-ffc1-4ccd-abda-852408a22e31" x1="125.64" y1="249.94" x2="-38.36" y2="189.94" gradientUnits="userSpaceOnUse"><stop offset="0" stop-color="#e4007f"></stop><stop offset="1" stop-color="#007eca"></stop></linearGradient><linearGradient id="hdad0af5c-1447-48a6-b86a-700d345e493f" x1="124.68" y1="252.56" x2="-39.32" y2="192.56" gradientUnits="userSpaceOnUse"><stop offset="0" stop-color="#e4007f"></stop><stop offset="1" stop-color="#007eca"></stop></linearGradient><linearGradient id="i97bd9c0c-3647-4d53-8ead-e9806d96ebbc" x1="140.67" y1="208.83" x2="-23.33" y2="148.83" gradientUnits="userSpaceOnUse"><stop offset="0" stop-color="#e4007f"></stop><stop offset="1" stop-color="#007eca"></stop></linearGradient><linearGradient id="jdb3d3882-f643-4040-8b78-f98e0faef6c4" x1="155.31" y1="168.82" x2="-8.69" y2="108.82" gradientUnits="userSpaceOnUse"><stop offset="0" stop-color="#e4007f"></stop><stop offset="1" stop-color="#007eca"></stop></linearGradient></defs><g><g fill-rule="evenodd"><path d="M164.79 79.72l69.38 40.19c27.8 16 31.21 28.05 9.48 43.6-43.22-15.92-90.23-34.62-95.54-37-45.49-19.59-33.49-30.58.25-41.2 4.55-1.39 10.36-3.41 16.43-5.56z" fill="url(#a4a613848-a113-4429-8c35-ca9ad1a80c46)"></path><path d="M111.58 49l27 15.67 20.52 11.89c-5.56 1.39-10.87 2.91-15.29 3.92C119 86.41 86.06 93 106.4 57.85c.89-1.64 2.78-4.93 5.18-8.85z" fill="url(#bc1fb899d-9258-4ed9-a083-622301e74a1e)"></path><path d="M58.13 18.17L107.92 47c-2.53 4-4.68 7.33-5.81 9-22.87 32.48-32.22 7.45-39.68-20.6-1.52-5.69-2.91-11.37-4.3-17.19z" fill="url(#c203ccf67-5004-428a-b966-e93dab2dd684)"></path><path d="M0 43.32v-8.84C0-2.43 11.5-8.62 45.11 10.72l9 5.18C55.48 22.47 57 29 58.26 35.74c5.81 29.7 7.07 54.26-28.94 30.58-4-2.91-18.58-14.41-29.32-23z" fill="url(#d5e757e44-c430-4230-9549-dfc3122f1cdc)"></path><path d="M0 103.22V49.14c9.1 8.21 19.84 17.94 23 20.72 30.58 26.92 10.62 30.58-10.24 32.35-4.17.38-8.47.76-12.76 1z" fill="url(#e9beaacd1-72a6-4050-8bc9-6cdd8058e362)"></path><path d="M0 165.52v-56.23l13.27.38c33 1.26 29.82 17.44 3.16 41.7-2 2-8.21 7.33-16.43 14.15z" fill="url(#fe7bb6ce7-49b7-4e66-b20a-fae3e4af773c)"></path><path d="M9.35 287.6C2.78 283.31 0 271.93 0 252.85v-80.12c9.6-7.46 17.06-13.27 19.46-15.16C72.41 116 51.81 166.28 41.2 197c-4.2 13.13-23 65.71-31.85 90.6z" fill="url(#ge426d972-ffc1-4ccd-abda-852408a22e31)"></path><path d="M102.23 245.9l-59 34C29.57 287.73 19.84 291 13 289.24c9-24.39 28.81-76.46 33.36-89.09C65 148.46 79 138.48 91.11 192.82c1.39 5.81 6.19 29.45 11.12 53.08z" fill="url(#hdad0af5c-1447-48a6-b86a-700d345e493f)"></path><path d="M165.8 209.12l-27.17 15.67-31.85 18.45c-4.29-23.25-8.47-46.13-9.48-51.94-11.75-70 15.16-40.19 42.46-11 6.7 7 16.93 18.58 26 28.81z" fill="url(#i97bd9c0c-3647-4d53-8ead-e9806d96ebbc)"></path><path d="M232.27 170.83l-63.19 36.4c-9.6-10.74-20.34-23.38-27-31.21-26.41-30.58-45.62-61 5.69-42.59 4.93 1.64 49.79 17.82 91.87 32.86-2.28 1.52-4.68 3-7.33 4.55z" fill="url(#jdb3d3882-f643-4040-8b78-f98e0faef6c4)"></path></g></g></svg></svg> <!----></g></g> <g transform="translate(67,21.008169174194336)"><g data-gra="path-name" fill-rule="" class="tp-name iconsvg-namesvg"><g transform="scale(1)"><g><path d="M16.56-22.57L15.75-20.97Q15.59-20.71 15.42-20.58 15.25-20.45 14.97-20.45L14.97-20.45Q14.67-20.45 14.28-20.74 13.89-21.04 13.29-21.39 12.7-21.75 11.85-22.04 11.01-22.34 9.82-22.34L9.82-22.34Q8.69-22.34 7.82-22.04 6.96-21.73 6.37-21.21 5.79-20.69 5.5-19.99 5.2-19.29 5.2-18.47L5.2-18.47Q5.2-17.43 5.71-16.75 6.23-16.06 7.07-15.58 7.91-15.09 8.98-14.73 10.04-14.38 11.16-14 12.28-13.62 13.35-13.14 14.41-12.66 15.25-11.93 16.1-11.2 16.61-10.15 17.12-9.09 17.12-7.54L17.12-7.54Q17.12-5.91 16.56-4.48 16.01-3.05 14.94-1.99 13.88-0.94 12.32-0.33 10.77 0.28 8.79 0.28L8.79 0.28Q6.38 0.28 4.4-0.6 2.41-1.47 1.01-2.97L1.01-2.97 1.98-4.56Q2.12-4.75 2.32-4.88 2.51-5.01 2.76-5.01L2.76-5.01Q3.12-5.01 3.59-4.62 4.06-4.23 4.76-3.76 5.46-3.3 6.46-2.91 7.46-2.51 8.9-2.51L8.9-2.51Q10.09-2.51 11.03-2.84 11.97-3.17 12.62-3.77 13.27-4.37 13.62-5.2 13.96-6.04 13.96-7.06L13.96-7.06Q13.96-8.19 13.45-8.91 12.94-9.63 12.11-10.11 11.27-10.6 10.21-10.94 9.14-11.27 8.02-11.63 6.9-11.98 5.84-12.45 4.77-12.92 3.94-13.67 3.1-14.41 2.59-15.53 2.08-16.65 2.08-18.3L2.08-18.3Q2.08-19.62 2.59-20.85 3.1-22.08 4.08-23.03 5.05-23.99 6.48-24.56 7.91-25.13 9.76-25.13L9.76-25.13Q11.85-25.13 13.56-24.47 15.28-23.81 16.56-22.57L16.56-22.57ZM31.91-24.85L41.85 0 39.25 0Q38.8 0 38.52-0.23 38.24-0.45 38.11-0.8L38.11-0.8 35.78-6.8 24.63-6.8 22.3-0.8Q22.18-0.49 21.89-0.24 21.59 0 21.16 0L21.16 0 18.56 0 28.5-24.85 31.91-24.85ZM29.47-19.32L25.57-9.23 34.84-9.23 30.94-19.34Q30.56-20.28 30.2-21.68L30.2-21.68Q30.01-20.97 29.82-20.37 29.64-19.77 29.47-19.32L29.47-19.32ZM46.73-24.85L46.73-24.85Q47.18-24.85 47.39-24.74 47.61-24.63 47.89-24.28L47.89-24.28 62.28-5.55Q62.23-6 62.21-6.43 62.2-6.85 62.2-7.25L62.2-7.25 62.2-24.85 65.15-24.85 65.15 0 63.45 0Q63.05 0 62.78-0.14 62.51-0.28 62.25-0.61L62.25-0.61 47.87-19.32Q47.91-18.89 47.92-18.47 47.94-18.06 47.94-17.71L47.94-17.71 47.94 0 44.99 0 44.99-24.85 46.73-24.85ZM75.21-24.85L75.21 0 71.84 0 71.84-24.85 75.21-24.85ZM95.41-22.57L94.6-20.97Q94.44-20.71 94.27-20.58 94.09-20.45 93.82-20.45L93.82-20.45Q93.52-20.45 93.13-20.74 92.74-21.04 92.14-21.39 91.54-21.75 90.7-22.04 89.86-22.34 88.66-22.34L88.66-22.34Q87.54-22.34 86.67-22.04 85.8-21.73 85.22-21.21 84.64-20.69 84.35-19.99 84.05-19.29 84.05-18.47L84.05-18.47Q84.05-17.43 84.56-16.75 85.07-16.06 85.92-15.58 86.76-15.09 87.82-14.73 88.89-14.38 90.01-14 91.13-13.62 92.19-13.14 93.26-12.66 94.1-11.93 94.94-11.2 95.45-10.15 95.97-9.09 95.97-7.54L95.97-7.54Q95.97-5.91 95.41-4.48 94.86-3.05 93.79-1.99 92.72-0.94 91.17-0.33 89.62 0.28 87.64 0.28L87.64 0.28Q85.23 0.28 83.24-0.6 81.26-1.47 79.85-2.97L79.85-2.97 80.82-4.56Q80.96-4.75 81.16-4.88 81.36-5.01 81.61-5.01L81.61-5.01Q81.97-5.01 82.44-4.62 82.91-4.23 83.61-3.76 84.31-3.3 85.31-2.91 86.31-2.51 87.75-2.51L87.75-2.51Q88.94-2.51 89.88-2.84 90.82-3.17 91.47-3.77 92.12-4.37 92.46-5.2 92.81-6.04 92.81-7.06L92.81-7.06Q92.81-8.19 92.3-8.91 91.79-9.63 90.95-10.11 90.12-10.6 89.05-10.94 87.99-11.27 86.87-11.63 85.75-11.98 84.68-12.45 83.62-12.92 82.78-13.67 81.95-14.41 81.44-15.53 80.93-16.65 80.93-18.3L80.93-18.3Q80.93-19.62 81.44-20.85 81.95-22.08 82.92-23.03 83.89-23.99 85.33-24.56 86.76-25.13 88.61-25.13L88.61-25.13Q90.69-25.13 92.41-24.47 94.13-23.81 95.41-22.57L95.41-22.57ZM105.23 0L97.48-24.85 100.27-24.85Q100.72-24.85 101.01-24.63 101.31-24.4 101.41-24.06L101.41-24.06 106.55-6.78Q106.69-6.31 106.8-5.78 106.91-5.24 107.01-4.65L107.01-4.65Q107.14-5.24 107.26-5.78 107.38-6.33 107.54-6.78L107.54-6.78 113.38-24.06Q113.48-24.35 113.79-24.6 114.09-24.85 114.52-24.85L114.52-24.85 115.5-24.85Q115.95-24.85 116.23-24.63 116.52-24.4 116.64-24.06L116.64-24.06 122.45-6.78Q122.76-5.88 123.01-4.72L123.01-4.72Q123.11-5.29 123.2-5.81 123.28-6.33 123.42-6.78L123.42-6.78 128.57-24.06Q128.66-24.37 128.96-24.61 129.27-24.85 129.7-24.85L129.7-24.85 132.32-24.85 124.57 0 121.55 0 115.25-18.96Q115.06-19.5 114.91-20.21L114.91-20.21Q114.82-19.86 114.74-19.54 114.66-19.22 114.58-18.96L114.58-18.96 108.25 0 105.23 0ZM139.59-24.85L139.59 0 136.22 0 136.22-24.85 139.59-24.85ZM159.79-22.57L158.98-20.97Q158.82-20.71 158.65-20.58 158.48-20.45 158.2-20.45L158.2-20.45Q157.9-20.45 157.51-20.74 157.12-21.04 156.52-21.39 155.93-21.75 155.08-22.04 154.24-22.34 153.05-22.34L153.05-22.34Q151.92-22.34 151.05-22.04 150.19-21.73 149.6-21.21 149.02-20.69 148.73-19.99 148.43-19.29 148.43-18.47L148.43-18.47Q148.43-17.43 148.94-16.75 149.46-16.06 150.3-15.58 151.14-15.09 152.21-14.73 153.27-14.38 154.39-14 155.51-13.62 156.58-13.14 157.64-12.66 158.48-11.93 159.33-11.2 159.84-10.15 160.35-9.09 160.35-7.54L160.35-7.54Q160.35-5.91 159.79-4.48 159.24-3.05 158.17-1.99 157.11-0.94 155.55-0.33 154 0.28 152.02 0.28L152.02 0.28Q149.61 0.28 147.63-0.6 145.64-1.47 144.24-2.97L144.24-2.97 145.21-4.56Q145.35-4.75 145.55-4.88 145.74-5.01 145.99-5.01L145.99-5.01Q146.35-5.01 146.82-4.62 147.29-4.23 147.99-3.76 148.69-3.3 149.69-2.91 150.69-2.51 152.13-2.51L152.13-2.51Q153.32-2.51 154.26-2.84 155.2-3.17 155.85-3.77 156.5-4.37 156.85-5.2 157.19-6.04 157.19-7.06L157.19-7.06Q157.19-8.19 156.68-8.91 156.17-9.63 155.34-10.11 154.5-10.6 153.44-10.94 152.37-11.27 151.25-11.63 150.13-11.98 149.07-12.45 148-12.92 147.17-13.67 146.33-14.41 145.82-15.53 145.31-16.65 145.31-18.3L145.31-18.3Q145.31-19.62 145.82-20.85 146.33-22.08 147.31-23.03 148.28-23.99 149.71-24.56 151.14-25.13 152.99-25.13L152.99-25.13Q155.08-25.13 156.79-24.47 158.51-23.81 159.79-22.57L159.79-22.57ZM178.18-22.57L177.36-20.97Q177.21-20.71 177.03-20.58 176.86-20.45 176.58-20.45L176.58-20.45Q176.29-20.45 175.9-20.74 175.51-21.04 174.91-21.39 174.31-21.75 173.47-22.04 172.63-22.34 171.43-22.34L171.43-22.34Q170.3-22.34 169.44-22.04 168.57-21.73 167.99-21.21 167.41-20.69 167.11-19.99 166.82-19.29 166.82-18.47L166.82-18.47Q166.82-17.43 167.33-16.75 167.84-16.06 168.68-15.58 169.52-15.09 170.59-14.73 171.66-14.38 172.78-14 173.89-13.62 174.96-13.14 176.03-12.66 176.87-11.93 177.71-11.2 178.22-10.15 178.73-9.09 178.73-7.54L178.73-7.54Q178.73-5.91 178.18-4.48 177.62-3.05 176.56-1.99 175.49-0.94 173.94-0.33 172.39 0.28 170.41 0.28L170.41 0.28Q168 0.28 166.01-0.6 164.03-1.47 162.62-2.97L162.62-2.97 163.59-4.56Q163.73-4.75 163.93-4.88 164.13-5.01 164.37-5.01L164.37-5.01Q164.74-5.01 165.21-4.62 165.67-4.23 166.38-3.76 167.08-3.3 168.08-2.91 169.07-2.51 170.51-2.51L170.51-2.51Q171.71-2.51 172.65-2.84 173.58-3.17 174.23-3.77 174.88-4.37 175.23-5.2 175.58-6.04 175.58-7.06L175.58-7.06Q175.58-8.19 175.07-8.91 174.55-9.63 173.72-10.11 172.89-10.6 171.82-10.94 170.76-11.27 169.64-11.63 168.52-11.98 167.45-12.45 166.38-12.92 165.55-13.67 164.72-14.41 164.21-15.53 163.7-16.65 163.7-18.3L163.7-18.3Q163.7-19.62 164.21-20.85 164.72-22.08 165.69-23.03 166.66-23.99 168.09-24.56 169.52-25.13 171.38-25.13L171.38-25.13Q173.46-25.13 175.18-24.47 176.9-23.81 178.18-22.57L178.18-22.57Z" transform="translate(-1.0099999904632568, 25.1299991607666)"></path></g> <!----> <!----> <!----> <!----> <!----> <!----> <!----></g></g> <!----></g></g></svg>